<svg width="395" height="116" viewBox="0 0 395 116" fill="none" xmlns="http://www.w3.org/2000/svg">
<rect y="57.9827" width="82" height="82" transform="rotate(-45 0 57.9827)" fill="black"/>
<path d="M339.68 97.5829H317.96L341.96 68.1829V67.2229L317.96 37.4629H339.92L355.88 57.7429H356.84L372.32 37.4629H394.04L370.04 66.8629V67.9429L394.04 97.5829H372.08L356.12 77.4229H355.16L339.68 97.5829Z" fill="black"/>
<path d="M281.569 98.7829C274.769 98.7829 268.769 97.5029 263.569 94.9429C258.449 92.3829 254.449 88.7829 251.569 84.1429C248.689 79.4229 247.249 73.9029 247.249 67.5829C247.249 61.1829 248.689 55.6629 251.569 51.0229C254.449 46.3029 258.449 42.6629 263.569 40.1029C268.769 37.5429 274.769 36.2629 281.569 36.2629C288.449 36.2629 294.449 37.5429 299.569 40.1029C304.689 42.6629 308.689 46.3029 311.569 51.0229C314.449 55.6629 315.889 61.1829 315.889 67.5829C315.889 73.9029 314.449 79.4229 311.569 84.1429C308.689 88.7829 304.689 92.3829 299.569 94.9429C294.449 97.5029 288.449 98.7829 281.569 98.7829ZM281.569 82.8229C287.649 82.8229 291.889 81.6229 294.289 79.2229C296.769 76.7429 298.009 72.8629 298.009 67.5829C298.009 62.2229 296.769 58.3029 294.289 55.8229C291.889 53.3429 287.649 52.1029 281.569 52.1029C275.489 52.1029 271.209 53.3429 268.729 55.8229C266.329 58.3029 265.129 62.2229 265.129 67.5829C265.129 72.8629 266.329 76.7429 268.729 79.2229C271.209 81.6229 275.489 82.8229 281.569 82.8229Z" fill="black"/>
<path d="M216.486 97.5829H165.966V17.1829H214.206C219.726 17.1829 224.366 17.9429 228.126 19.4629C231.886 20.9029 234.726 23.1029 236.646 26.0629C238.566 28.9429 239.526 32.5029 239.526 36.7429C239.526 41.7029 238.086 45.8629 235.206 49.2229C232.326 52.5029 227.526 54.3829 220.806 54.8629V55.9429C228.246 56.5029 233.766 58.5029 237.366 61.9429C241.046 65.3829 242.886 69.8229 242.886 75.2629C242.886 79.8229 241.926 83.7829 240.006 87.1429C238.086 90.5029 235.166 93.1029 231.246 94.9429C227.406 96.7029 222.486 97.5829 216.486 97.5829ZM183.966 63.9829V81.3829H214.326C218.006 81.3829 220.646 80.7429 222.246 79.4629C223.846 78.1029 224.646 75.8229 224.646 72.6229C224.646 69.4229 223.846 67.1829 222.246 65.9029C220.646 64.6229 218.006 63.9829 214.326 63.9829H183.966ZM183.966 33.3829V49.1029H212.166C215.526 49.1029 217.926 48.5029 219.366 47.3029C220.806 46.0229 221.526 44.0229 221.526 41.3029C221.526 38.5829 220.766 36.5829 219.246 35.3029C217.726 34.0229 215.286 33.3829 211.926 33.3829H183.966Z" fill="black"/>
</svg>
