<svg width="117" height="28" viewBox="0 0 117 28" fill="none" xmlns="http://www.w3.org/2000/svg">
<path fill-rule="evenodd" clip-rule="evenodd" d="M28.5 0H0.5V28H28.5V0ZM5.8999 6.42001V22.34H9.5999V6.42001H5.8999Z" fill="white"/>
<path d="M44.834 21H41.534V6.26H48.31C49.4833 6.26 50.4733 6.436 51.28 6.788C52.1013 7.14 52.7247 7.65333 53.15 8.328C53.5753 8.988 53.788 9.79467 53.788 10.748C53.788 11.54 53.656 12.2293 53.392 12.816C53.128 13.388 52.7173 13.8427 52.16 14.18C51.6173 14.5027 50.9207 14.708 50.07 14.796V15.016C50.7007 15.2067 51.1993 15.4927 51.566 15.874C51.9327 16.2553 52.2553 16.732 52.534 17.304L54.404 21H50.554L48.816 17.59C48.596 17.1647 48.376 16.82 48.156 16.556C47.9507 16.2773 47.694 16.0793 47.386 15.962C47.0927 15.83 46.682 15.764 46.154 15.764H44.834V21ZM44.834 9.23V13.036H48.464C49.2413 13.036 49.7767 12.8967 50.07 12.618C50.3633 12.3393 50.51 11.8407 50.51 11.122C50.51 10.418 50.3633 9.92667 50.07 9.648C49.7767 9.36933 49.2413 9.23 48.464 9.23H44.834ZM60.1737 21.22C58.9123 21.22 57.871 20.9853 57.0497 20.516C56.2283 20.0467 55.6197 19.3867 55.2237 18.536C54.8277 17.6707 54.6297 16.6587 54.6297 15.5C54.6297 14.312 54.8497 13.2853 55.2897 12.42C55.7443 11.5547 56.3897 10.8873 57.2257 10.418C58.0617 9.94867 59.0517 9.714 60.1957 9.714C61.3103 9.714 62.2563 9.91933 63.0337 10.33C63.8257 10.7407 64.427 11.3127 64.8377 12.046C65.263 12.7647 65.4757 13.608 65.4757 14.576C65.4757 14.884 65.4537 15.1847 65.4097 15.478C65.3803 15.7713 65.351 16.0133 65.3217 16.204H56.0817V14.202H62.5057L62.2857 14.378C62.3443 13.9527 62.293 13.6007 62.1317 13.322C61.985 13.0287 61.7357 12.8087 61.3837 12.662C61.0463 12.5007 60.6137 12.42 60.0857 12.42C59.1763 12.42 58.553 12.6253 58.2157 13.036C57.8783 13.4467 57.7097 14.0333 57.7097 14.796V15.764C57.7097 16.38 57.7757 16.8787 57.9077 17.26C58.0543 17.6413 58.311 17.92 58.6777 18.096C59.0443 18.272 59.5577 18.36 60.2177 18.36C60.8777 18.36 61.3543 18.2867 61.6477 18.14C61.9557 17.9787 62.1097 17.7293 62.1097 17.392V17.26H65.3657V17.48C65.3657 18.272 65.153 18.9467 64.7277 19.504C64.3023 20.0613 63.701 20.4867 62.9237 20.78C62.1463 21.0733 61.2297 21.22 60.1737 21.22ZM73.6129 21.22C72.7329 21.22 72.0143 21.0587 71.4569 20.736C70.9143 20.4133 70.5183 20.0173 70.2689 19.548H69.5649L69.7409 16.358H70.1589C70.1589 16.8567 70.2469 17.26 70.4229 17.568C70.6136 17.8613 70.8849 18.074 71.2369 18.206C71.6036 18.338 72.0509 18.404 72.5789 18.404C73.0483 18.404 73.4369 18.3453 73.7449 18.228C74.0676 18.1107 74.3169 17.9347 74.4929 17.7C74.6836 17.4653 74.8156 17.1647 74.8889 16.798C74.9623 16.4167 74.9989 15.9767 74.9989 15.478C74.9989 14.9793 74.9623 14.5467 74.8889 14.18C74.8156 13.7987 74.6836 13.4907 74.4929 13.256C74.3169 13.0067 74.0676 12.8233 73.7449 12.706C73.4369 12.5887 73.0483 12.53 72.5789 12.53C72.0509 12.53 71.6036 12.6033 71.2369 12.75C70.8849 12.882 70.6136 13.0947 70.4229 13.388C70.2469 13.6813 70.1589 14.0773 70.1589 14.576H69.7409L69.5649 11.562H70.0269C70.3349 10.9607 70.7896 10.506 71.3909 10.198C72.0069 9.87533 72.7256 9.714 73.5469 9.714C75.1163 9.714 76.2969 10.2347 77.0889 11.276C77.8956 12.3173 78.2989 13.718 78.2989 15.478C78.2989 17.2087 77.8956 18.602 77.0889 19.658C76.2823 20.6993 75.1236 21.22 73.6129 21.22ZM70.1589 24.696H66.8589V9.934H69.9169V12.288L70.1589 12.574V24.696ZM83.247 21H79.969V9.934H83.027V13.08L83.247 13.19V21ZM83.247 14.07H82.631V11.716H83.159C83.4377 11.1587 83.8264 10.6893 84.325 10.308C84.8384 9.912 85.4837 9.714 86.261 9.714C87.0384 9.714 87.6544 9.89 88.109 10.242C88.5784 10.5793 88.9157 11.0487 89.121 11.65C89.3264 12.2367 89.429 12.904 89.429 13.652V14.664H86.151V14.07C86.151 13.4687 86.0484 13.058 85.843 12.838C85.6377 12.618 85.271 12.508 84.743 12.508C84.2444 12.508 83.8704 12.618 83.621 12.838C83.3717 13.058 83.247 13.4687 83.247 14.07ZM93.7058 8.68H90.4718L90.4278 6.26H93.7058V8.68ZM93.7718 21H90.4718V9.934H93.7718V21ZM106.632 21H103.332V14.642C103.332 13.8793 103.178 13.344 102.87 13.036C102.562 12.7133 101.99 12.552 101.154 12.552C100.626 12.552 100.193 12.618 99.8557 12.75C99.533 12.882 99.291 13.1093 99.1297 13.432C98.9683 13.74 98.8877 14.1727 98.8877 14.73H98.4257L98.1617 11.87H98.7997C99.005 11.4447 99.269 11.0707 99.5917 10.748C99.929 10.4253 100.34 10.176 100.824 10C101.308 9.80933 101.872 9.714 102.518 9.714C103.486 9.714 104.27 9.90467 104.872 10.286C105.473 10.6673 105.913 11.188 106.192 11.848C106.485 12.4933 106.632 13.2047 106.632 13.982V21ZM98.8877 21H95.6097V9.934H98.6677V13.058L98.8877 13.168V21ZM113.583 21.044C112.145 21.044 111.075 20.758 110.371 20.186C109.667 19.614 109.315 18.6753 109.315 17.37V10.264L110.019 7.36H112.615V16.996C112.615 17.48 112.732 17.7807 112.967 17.898C113.201 18.0153 113.671 18.074 114.375 18.074H115.739V20.824C115.475 20.8827 115.145 20.934 114.749 20.978C114.367 21.022 113.979 21.044 113.583 21.044ZM115.739 12.662H107.555V9.934H115.739V12.662Z" fill="white"/>
</svg>
