<svg width="163" height="57" viewBox="0 0 163 57" fill="none" xmlns="http://www.w3.org/2000/svg">
<path fill-rule="evenodd" clip-rule="evenodd" d="M0.5 0.5H6.15686V3.5H3.5V6.15686H0.5V0.5ZM15.5098 0.5H23.8235V3.5H15.5098V0.5ZM33.1764 0.5H41.4902V3.5H33.1764V0.5ZM50.8431 0.5H59.1568V3.5H50.8431V0.5ZM68.5098 0.5H76.8235V3.5H68.5098V0.5ZM86.1765 0.5H94.4902V3.5H86.1765V0.5ZM103.843 0.5H112.157V3.5H103.843V0.5ZM121.51 0.5H129.824V3.5H121.51V0.5ZM139.176 0.5H147.49V3.5H139.176V0.5ZM156.843 0.5H162.5V6.15686H159.5V3.5H156.843V0.5ZM0.5 23.8235V15.5098H3.5V23.8235H0.5ZM162.5 15.5098V23.8235H159.5V15.5098H162.5ZM0.5 41.4902V33.1765H3.5V41.4902H0.5ZM162.5 33.1765V41.4902H159.5V33.1765H162.5ZM162.5 50.8431V56.5H156.843V53.5H159.5V50.8431H162.5ZM0.5 50.8431H3.5V53.5H6.15686V56.5H0.5V50.8431ZM23.8235 56.5H15.5098V53.5H23.8235V56.5ZM41.4902 56.5H33.1765V53.5H41.4902V56.5ZM59.1569 56.5H50.8431V53.5H59.1569V56.5ZM76.8235 56.5H68.5098V53.5H76.8235V56.5ZM94.4902 56.5H86.1765V53.5H94.4902V56.5ZM112.157 56.5H103.843V53.5H112.157V56.5ZM129.824 56.5H121.51V53.5H129.824V56.5ZM147.49 56.5H139.176V53.5H147.49V56.5Z" fill="white"/>
<path fill-rule="evenodd" clip-rule="evenodd" d="M80 20H77V26.5H70.5V29.5H77V36H80V29.5H86.5V26.5H80V20Z" fill="white"/>
</svg>
