<svg width="538" height="57" viewBox="0 0 538 57" fill="none" xmlns="http://www.w3.org/2000/svg">
<path d="M471.982 56.7871V0.0976562H536.338V5.66406H486.875V25.5371H531.309V30.1758H486.875V51.416H537.021V56.7871H471.982Z" fill="white"/>
<path d="M393.174 56.7871V0.0976562H457.529V5.66406H408.066V25.5371H452.5V30.1758H408.066V51.416H458.213V56.7871H393.174Z" fill="white"/>
<path d="M308.555 56.7871V0.0976562H319.736L362.949 41.0156C363.6 41.6667 364.186 42.2526 364.707 42.7734C365.26 43.2617 365.781 43.6198 366.27 43.8477H366.807C366.449 43.2617 366.172 42.7409 365.977 42.2852C365.814 41.8294 365.732 41.3086 365.732 40.7227V0.0976562H372.129V56.7871H361.826L318.125 15.2344C317.311 14.4206 316.595 13.737 315.977 13.1836C315.391 12.6302 314.967 12.1745 314.707 11.8164H313.926C314.316 12.207 314.609 12.6953 314.805 13.2812C315 13.8346 315.098 14.2904 315.098 14.6484L315.146 56.7871H308.555Z" fill="white"/>
<path d="M271.543 56.7871V0.0976562H287.119V56.7871H271.543Z" fill="white"/>
<path d="M185.02 6.10352V0.0976562H260.264V6.10352H230.43V56.7871H214.902V6.10352H185.02Z" fill="white"/>
<path d="M106.943 56.7871L141.758 0H157.48L192.686 56.7871H175.107L149.668 10.9863C149.017 9.7819 148.285 8.31706 147.471 6.5918C146.689 4.86654 146.038 3.59701 145.518 2.7832H145.273C144.753 3.62956 144.036 4.91536 143.125 6.64062C142.246 8.36589 141.481 9.81445 140.83 10.9863L115.732 56.7871H106.943ZM119.785 41.2598L123.057 36.6699H172.031L175.303 41.2598H119.785Z" fill="white"/>
<path d="M0.00976562 56.7871V0.0976562H15.1465L44.834 41.1621C45.3874 41.9108 45.8105 42.4479 46.1035 42.7734C46.3965 43.099 46.6732 43.3919 46.9336 43.6523H47.2266C47.487 43.3919 47.7799 43.099 48.1055 42.7734C48.431 42.4154 48.8704 41.8783 49.4238 41.1621L79.7461 0.0976562H95.3223V56.7871H79.8926L79.9902 12.1582C79.9902 11.6374 80.1042 11.1654 80.332 10.7422C80.5924 10.319 80.7389 9.86328 80.7715 9.375H79.8926C79.5345 9.83073 79.1602 10.2865 78.7695 10.7422C78.4115 11.1654 78.0534 11.6211 77.6953 12.1094L46.7871 56.7871H39.0234L9.14062 12.3047C8.71745 11.7188 8.39193 11.2467 8.16406 10.8887C7.96875 10.5306 7.72461 10.0749 7.43164 9.52148H6.50391C6.53646 10.14 6.68294 10.6445 6.94336 11.0352C7.20378 11.4258 7.33398 11.8978 7.33398 12.4512L7.48047 56.7871H0.00976562Z" fill="white"/>
</svg>
