<svg width="538" height="57" viewBox="0 0 538 57" fill="none" xmlns="http://www.w3.org/2000/svg">
<path d="M471.982 57V0.310547H536.338V5.87695H486.875V25.75H531.309V30.3887H486.875V51.6289H537.021V57H471.982Z" fill="black"/>
<path d="M393.174 57V0.310547H457.529V5.87695H408.066V25.75H452.5V30.3887H408.066V51.6289H458.213V57H393.174Z" fill="black"/>
<path d="M308.555 57V0.310547H319.736L362.949 41.2285C363.6 41.8796 364.186 42.4655 364.707 42.9863C365.26 43.4746 365.781 43.8327 366.27 44.0605H366.807C366.449 43.4746 366.172 42.9538 365.977 42.498C365.814 42.0423 365.732 41.5215 365.732 40.9355V0.310547H372.129V57H361.826L318.125 15.4473C317.311 14.6335 316.595 13.9499 315.977 13.3965C315.391 12.8431 314.967 12.3874 314.707 12.0293H313.926C314.316 12.4199 314.609 12.9082 314.805 13.4941C315 14.0475 315.098 14.5033 315.098 14.8613L315.146 57H308.555Z" fill="black"/>
<path d="M271.543 57V0.310547H287.119V57H271.543Z" fill="black"/>
<path d="M185.02 6.31641V0.310547H260.264V6.31641H230.43V57H214.902V6.31641H185.02Z" fill="black"/>
<path d="M106.943 57L141.758 0.212891H157.48L192.686 57H175.107L149.668 11.1992C149.017 9.99479 148.285 8.52995 147.471 6.80469C146.689 5.07943 146.038 3.8099 145.518 2.99609H145.273C144.753 3.84245 144.036 5.12826 143.125 6.85352C142.246 8.57878 141.481 10.0273 140.83 11.1992L115.732 57H106.943ZM119.785 41.4727L123.057 36.8828H172.031L175.303 41.4727H119.785Z" fill="black"/>
<path d="M0.00976562 57V0.310547H15.1465L44.834 41.375C45.3874 42.1237 45.8105 42.6608 46.1035 42.9863C46.3965 43.3118 46.6732 43.6048 46.9336 43.8652H47.2266C47.487 43.6048 47.7799 43.3118 48.1055 42.9863C48.431 42.6283 48.8704 42.0911 49.4238 41.375L79.7461 0.310547H95.3223V57H79.8926L79.9902 12.3711C79.9902 11.8503 80.1042 11.3783 80.332 10.9551C80.5924 10.5319 80.7389 10.0762 80.7715 9.58789H79.8926C79.5345 10.0436 79.1602 10.4993 78.7695 10.9551C78.4115 11.3783 78.0534 11.834 77.6953 12.3223L46.7871 57H39.0234L9.14062 12.5176C8.71745 11.9316 8.39193 11.4596 8.16406 11.1016C7.96875 10.7435 7.72461 10.2878 7.43164 9.73438H6.50391C6.53646 10.3529 6.68294 10.8574 6.94336 11.248C7.20378 11.6387 7.33398 12.1107 7.33398 12.6641L7.48047 57H0.00976562Z" fill="black"/>
</svg>
